<?xml version="1.0" standalone="no"?><!DOCTYPE svg PUBLIC "-//W3C//DTD SVG 1.1//EN" "http://www.w3.org/Graphics/SVG/1.1/DTD/svg11.dtd"><svg t="1688239190853" class="icon" viewBox="0 0 1024 1024" version="1.1" xmlns="http://www.w3.org/2000/svg" p-id="6934" xmlns:xlink="http://www.w3.org/1999/xlink" width="200" height="200"><path d="M960 448a64 64 0 0 1-64-64v-37.44L621.44 621.312a64.576 64.576 0 0 1-90.88 0L448 538.56l-146.56 146.752a64.128 64.128 0 0 1-90.88-90.496l192-192a64.448 64.448 0 0 1 90.88 0L576 485.568l229.76-229.44H768a64 64 0 1 1 0-128h192a64 64 0 0 1 64 64v192A64 64 0 0 1 960 448z m0 512c35.2 0 64-35.392 64 0a64 64 0 0 1-64 64H64a64 64 0 0 1-64-64V64a64 64 0 0 1 64-64c35.2 0 0 28.672 0 64v896h896z" fill="#888888" p-id="6935"></path></svg>